<svg width="22" height="14" viewBox="0 0 22 14" fill="none" xmlns="http://www.w3.org/2000/svg">
<path fill-rule="evenodd" clip-rule="evenodd" d="M1.24913 7.82751C0.916955 7.32161 0.916956 6.67839 1.24913 6.17249C3.28988 3.06446 6.89417 1 11 1C15.1058 1 18.7101 3.06446 20.7509 6.17249C21.083 6.67839 21.083 7.32161 20.7509 7.82751C18.7101 10.9355 15.1058 13 11 13C6.89417 13 3.28988 10.9355 1.24913 7.82751Z" stroke="#979797" stroke-width="2"/>
<path d="M13 7C13 8.10457 12.1046 9 11 9C9.89543 9 9 8.10457 9 7C9 5.89543 9.89543 5 11 5C12.1046 5 13 5.89543 13 7Z" stroke="#979797" stroke-width="2"/>
</svg>
