<svg width="20" height="20" viewBox="0 0 20 20" fill="none" xmlns="http://www.w3.org/2000/svg">
<path fill-rule="evenodd" clip-rule="evenodd" d="M0 4C0 1.79086 1.79086 0 4 0H16C18.2091 0 20 1.79086 20 4V16C20 18.2091 18.2091 20 16 20H4C1.79086 20 0 18.2091 0 16V4Z" fill="#979797"/>
<path fill-rule="evenodd" clip-rule="evenodd" d="M16.2001 7.7C16.2001 7.9 16.1001 8.1 16.0001 8.2L10.3001 13.9L9.2001 15C9.1001 15.1 8.9001 15.2 8.7001 15.2C8.5001 15.2 8.3001 15.1 8.2001 15L7.1001 13.9L4.3001 11.1C4.2001 11 4.1001 10.8 4.1001 10.6C4.1001 10.4 4.2001 10.2 4.3001 10.1L5.4001 9C5.5001 8.9 5.7001 8.8 5.9001 8.8C6.1001 8.8 6.3001 8.9 6.4001 9L8.7001 11.3L13.8001 6.2C13.9001 6.1 14.1001 6 14.3001 6C14.5001 6 14.7001 6.1 14.8001 6.2L15.9001 7.3C16.1001 7.4 16.2001 7.5 16.2001 7.7V7.7Z" fill="white"/>
</svg>
