<svg width="22" height="19" viewBox="0 0 22 19" fill="none" xmlns="http://www.w3.org/2000/svg">
<path d="M1.24913 9.17269L0.413222 8.62382L1.24913 9.17269ZM1.24913 10.8277L0.413221 11.3766L1.24913 10.8277ZM20.7509 9.17269L19.915 9.72155L20.7509 9.17269ZM20.7509 10.8277L19.915 10.2788L20.7509 10.8277ZM17.4788 18.2073C17.8693 18.5978 18.5025 18.5978 18.893 18.2073C19.2835 17.8168 19.2835 17.1836 18.893 16.7931L17.4788 18.2073ZM3.33664 1.23674C2.94612 0.846217 2.31295 0.846217 1.92243 1.23674C1.5319 1.62727 1.5319 2.26043 1.92243 2.65095L3.33664 1.23674ZM0.413222 8.62382C-0.13774 9.46293 -0.137741 10.5375 0.413221 11.3766L2.08504 10.2788C1.97165 10.1061 1.97165 9.89425 2.08505 9.72155L0.413222 8.62382ZM11 3.0002C6.55477 3.0002 2.63743 5.23638 0.413222 8.62382L2.08505 9.72155C3.94233 6.89293 7.23357 5.0002 11 5.0002V3.0002ZM21.5868 8.62382C19.3626 5.23638 15.4452 3.0002 11 3.0002V5.0002C14.7664 5.0002 18.0577 6.89294 19.915 9.72155L21.5868 8.62382ZM21.5868 11.3766C22.1377 10.5375 22.1377 9.46293 21.5868 8.62382L19.915 9.72155C20.0283 9.89425 20.0283 10.1061 19.915 10.2788L21.5868 11.3766ZM11 17.0002C15.4452 17.0002 19.3626 14.764 21.5868 11.3766L19.915 10.2788C18.0577 13.1075 14.7664 15.0002 11 15.0002V17.0002ZM0.413221 11.3766C2.63743 14.764 6.55477 17.0002 11 17.0002V15.0002C7.23357 15.0002 3.94233 13.1075 2.08504 10.2788L0.413221 11.3766ZM12 10.0002C12 10.5525 11.5523 11.0002 11 11.0002V13.0002C12.6569 13.0002 14 11.6571 14 10.0002H12ZM11 11.0002C10.4477 11.0002 10 10.5525 10 10.0002H8C8 11.6571 9.34315 13.0002 11 13.0002V11.0002ZM10 10.0002C10 9.44791 10.4477 9.0002 11 9.0002V7.0002C9.34315 7.0002 8 8.34334 8 10.0002H10ZM11 9.0002C11.5523 9.0002 12 9.44791 12 10.0002H14C14 8.34334 12.6569 7.0002 11 7.0002V9.0002ZM18.893 16.7931L3.33664 1.23674L1.92243 2.65095L17.4788 18.2073L18.893 16.7931Z" fill="#53B6FD"/>
</svg>
