<svg width="0" height="0" class="hidden">
  <symbol fill="none" xmlns="http://www.w3.org/2000/svg" viewBox="0 0 23 23" id="icon-timer-red">
    <path fill-rule="evenodd" clip-rule="evenodd" d="M8.06661 0.733333C8.06661 0.328325 8.39493 0 8.79995 0H10.9999H13.1999C13.605 0 13.9333 0.328325 13.9333 0.733333C13.9333 1.13834 13.605 1.46667 13.1999 1.46667H11.7333V3.10819C13.3442 3.23267 14.8412 3.76379 16.1216 4.59906C16.1503 4.55915 16.1826 4.52103 16.2184 4.48515L17.3917 3.31182C17.7497 2.95384 18.3301 2.95384 18.6881 3.31182C19.0461 3.66981 19.0461 4.2502 18.6881 4.60818L17.5516 5.74467C19.3006 7.44957 20.3866 9.83127 20.3866 12.4666C20.3866 17.6507 16.1841 21.8533 10.9999 21.8533C5.81582 21.8533 1.61328 17.6507 1.61328 12.4666C1.61328 7.52931 5.42524 3.48231 10.2666 3.10819V1.46667H8.79995C8.39493 1.46667 8.06661 1.13834 8.06661 0.733333ZM3.07995 12.4666C3.07995 8.09254 6.62585 4.54664 10.9999 4.54664C15.374 4.54664 18.92 8.09254 18.92 12.4666C18.92 16.8407 15.374 20.3867 10.9999 20.3867C6.62585 20.3867 3.07995 16.8407 3.07995 12.4666ZM11.7333 6.6C11.7333 6.19499 11.405 5.86667 10.9999 5.86667C10.5949 5.86667 10.2666 6.19499 10.2666 6.6V13.9333C10.2666 14.3383 10.5949 14.6667 10.9999 14.6667C11.405 14.6667 11.7333 14.3383 11.7333 13.9333V6.6Z" fill="#DC2E2E"></path>
  </symbol>
  <symbol fill="none" xmlns="http://www.w3.org/2000/svg" viewBox="0 0 76 50" id="logo-min">
    <path d="M32.351 30.4548L38.0104 21.0503V30.0021C38.0104 34.4178 39.1591 38.4482 42.119 41.3604C44.9674 44.1629 48.6933 45.3761 52.8204 45.3761C54.7765 45.3761 56.6679 45.0392 58.4572 44.3332C59.0908 44.7546 59.8514 45.0001 60.6694 45.0001H67.6254C69.8345 45.0001 71.6254 43.2092 71.6254 41.0001V15.7141C71.6254 13.505 69.8345 11.7141 67.6254 11.7141H60.2934C58.0842 11.7141 56.2934 13.505 56.2934 15.7141V28.2161C56.2934 29.8452 55.919 30.4378 55.765 30.6158C55.558 30.8273 55.2493 31.0311 54.4654 31.0311C54.0007 31.0311 53.7743 30.961 53.7018 30.9322C53.693 30.9287 53.6861 30.9257 53.6809 30.9232C53.6306 30.8492 53.3424 30.3611 53.3424 28.9211V15.7141C53.3424 13.505 51.5515 11.7141 49.3424 11.7141H43.6286L44.5623 10.1625C45.3058 8.92698 45.3267 7.38687 44.6171 6.13157C43.9074 4.87626 42.577 4.1001 41.135 4.1001H33.662C32.2583 4.1001 30.9573 4.83589 30.234 6.03887L24.873 14.9547L19.512 6.03887C18.7887 4.83589 17.4877 4.1001 16.084 4.1001H8C6.55774 4.1001 5.22717 4.87651 4.51759 6.13214C3.80802 7.38777 3.82934 8.92817 4.57339 10.1637L16.737 30.3616V41.0001C16.737 43.2092 18.5279 45.0001 20.737 45.0001H28.351C30.5601 45.0001 32.351 43.2092 32.351 41.0001V30.4548Z" fill="white" stroke="#53B6FD" stroke-width="8" stroke-linejoin="round"></path>
  </symbol>
  <symbol fill="none" xmlns="http://www.w3.org/2000/svg" viewBox="0 0 23 23" id="icon-dobe-black">
    <path fill-rule="evenodd" clip-rule="evenodd" d="M11.9999 2.28638C6.63526 2.28638 2.28638 6.63526 2.28638 11.9999C2.28638 17.3644 6.63526 21.7133 11.9999 21.7133C17.3645 21.7133 21.7133 17.3644 21.7133 11.9999C21.7133 6.63526 17.3645 2.28638 11.9999 2.28638ZM3.67972 11.9999C3.67972 7.40477 7.40477 3.6797 11.9999 3.6797C16.5949 3.6797 20.32 7.40477 20.32 11.9999C20.32 16.595 16.5949 20.32 11.9999 20.32C7.40477 20.32 3.67972 16.595 3.67972 11.9999ZM15.8997 9.12206C16.1328 8.79085 16.0533 8.33339 15.7221 8.10031C15.3908 7.86723 14.9334 7.94679 14.7003 8.27801L10.5623 14.1583L8.85666 12.4211C8.5729 12.1321 8.1086 12.1278 7.8196 12.4116C7.5306 12.6953 7.52634 13.1596 7.8101 13.4486L10.1323 15.8138C10.2848 15.9691 10.4984 16.0486 10.7153 16.0309C10.9322 16.0133 11.1301 15.9001 11.2553 15.722L15.8997 9.12206Z" fill="black"></path>
  </symbol>
  <symbol fill="none" xmlns="http://www.w3.org/2000/svg" viewBox="0 0 23 23" id="icon-done">
    <path fill-rule="evenodd" clip-rule="evenodd" d="M11.9999 2.28638C6.63526 2.28638 2.28638 6.63526 2.28638 11.9999C2.28638 17.3644 6.63526 21.7133 11.9999 21.7133C17.3645 21.7133 21.7133 17.3644 21.7133 11.9999C21.7133 6.63526 17.3645 2.28638 11.9999 2.28638ZM3.67972 11.9999C3.67972 7.40477 7.40477 3.6797 11.9999 3.6797C16.5949 3.6797 20.32 7.40477 20.32 11.9999C20.32 16.595 16.5949 20.32 11.9999 20.32C7.40477 20.32 3.67972 16.595 3.67972 11.9999ZM15.8997 9.12206C16.1328 8.79085 16.0533 8.33339 15.7221 8.10031C15.3908 7.86723 14.9334 7.94679 14.7003 8.27801L10.5623 14.1583L8.85666 12.4211C8.5729 12.1321 8.1086 12.1278 7.8196 12.4116C7.5306 12.6953 7.52634 13.1596 7.8101 13.4486L10.1323 15.8138C10.2848 15.9691 10.4984 16.0486 10.7153 16.0309C10.9322 16.0133 11.1301 15.9001 11.2553 15.722L15.8997 9.12206Z" fill="#53B6FD"></path>
  </symbol>
  <symbol fill="none" xmlns="http://www.w3.org/2000/svg" viewBox="0 0 23 23" id="icon-done-green">
    <path fill-rule="evenodd" clip-rule="evenodd" d="M11.9999 2.28638C6.63526 2.28638 2.28638 6.63526 2.28638 11.9999C2.28638 17.3644 6.63526 21.7133 11.9999 21.7133C17.3645 21.7133 21.7133 17.3644 21.7133 11.9999C21.7133 6.63526 17.3645 2.28638 11.9999 2.28638ZM3.67972 11.9999C3.67972 7.40477 7.40477 3.6797 11.9999 3.6797C16.5949 3.6797 20.32 7.40477 20.32 11.9999C20.32 16.595 16.5949 20.32 11.9999 20.32C7.40477 20.32 3.67972 16.595 3.67972 11.9999ZM15.8997 9.12206C16.1328 8.79085 16.0533 8.33339 15.7221 8.10031C15.3908 7.86723 14.9334 7.94679 14.7003 8.27801L10.5623 14.1583L8.85666 12.4211C8.5729 12.1321 8.1086 12.1278 7.8196 12.4116C7.5306 12.6953 7.52634 13.1596 7.8101 13.4486L10.1323 15.8138C10.2848 15.9691 10.4984 16.0486 10.7153 16.0309C10.9322 16.0133 11.1301 15.9001 11.2553 15.722L15.8997 9.12206Z" fill="#44C869"></path>
  </symbol>
  <symbol fill="none" xmlns="http://www.w3.org/2000/svg" viewBox="0 0 23 23" id="icon-edit">
    <path fill-rule="evenodd" clip-rule="evenodd" d="M17.1709 0.247838C17.5014 -0.0826127 18.0372 -0.0826127 18.3675 0.247838L21.7521 3.63246C22.0826 3.9629 22.0826 4.49865 21.7521 4.82909L15.08 11.5012C14.9514 11.6299 14.8028 11.7369 14.6402 11.8183L7.99378 15.1415C7.66801 15.3044 7.27458 15.2404 7.01705 14.983C6.75951 14.7254 6.69566 14.332 6.85855 14.0062L10.1818 7.35981C10.2631 7.19711 10.3701 7.04859 10.4988 6.91998L17.1709 0.247838ZM17.7693 2.0428L11.6954 8.11663L9.93837 11.6307L10.3693 12.0616L13.8834 10.3046L19.9573 4.23078L17.7693 2.0428ZM13.5385 1.69231L11.8461 3.38462H4.9077C4.1829 3.38462 3.69019 3.38528 3.30935 3.41639C2.93838 3.44669 2.74867 3.50164 2.61633 3.56907C2.2979 3.73132 2.03902 3.99021 1.87676 4.30864C1.80933 4.44098 1.7544 4.63069 1.72409 5.00166C1.69297 5.38249 1.69231 5.87521 1.69231 6.60001V17.0923C1.69231 17.8172 1.69297 18.3098 1.72409 18.6907C1.7544 19.0617 1.80933 19.2514 1.87676 19.3837C2.03902 19.7022 2.2979 19.961 2.61633 20.1233C2.74867 20.1908 2.93838 20.2456 3.30935 20.2759C3.69019 20.3071 4.1829 20.3077 4.9077 20.3077H15.4C16.1248 20.3077 16.6175 20.3071 16.9984 20.2759C17.3694 20.2456 17.5591 20.1908 17.6914 20.1233C18.0099 19.961 18.2687 19.7022 18.431 19.3837C18.4985 19.2514 18.5533 19.0617 18.5836 18.6907C18.6147 18.3098 18.6154 17.8172 18.6154 17.0923V10.1538L20.3077 8.46152V17.0923V17.1274C20.3077 17.8084 20.3077 18.3705 20.2703 18.8285C20.2314 19.3042 20.1481 19.7413 19.9388 20.152C19.6144 20.7889 19.0965 21.3067 18.4597 21.6311C18.049 21.8405 17.6119 21.9237 17.1362 21.9626C16.6782 22 16.116 22 15.4351 22H15.4H4.9077H4.87274C4.19162 22 3.62947 22 3.17154 21.9626C2.69592 21.9237 2.25871 21.8405 1.84804 21.6311C1.21119 21.3067 0.693391 20.7889 0.368907 20.152C0.159653 19.7413 0.0762562 19.3042 0.0374007 18.8285C-1.62747e-05 18.3705 -1.62256e-05 17.8084 6.9754e-07 17.1274V17.1272V17.0923V6.60001V6.56507V6.56501V6.565C-1.62256e-05 5.88391 -1.62747e-05 5.32177 0.0374007 4.86385C0.0762562 4.38823 0.159653 3.95102 0.368907 3.54035C0.693391 2.90348 1.21119 2.3857 1.84804 2.06122C2.25871 1.85196 2.69592 1.76857 3.17154 1.72971C3.62947 1.69229 4.1916 1.69229 4.87271 1.69231H4.87276H4.9077H13.5385Z" fill="#53B6FD"></path>
  </symbol>
  <symbol fill="none" xmlns="http://www.w3.org/2000/svg" viewBox="0 0 23 23" id="icon-home">
    <path fill-rule="evenodd" clip-rule="evenodd" d="M11.3703 2.25781C11.7197 1.91406 12.2803 1.91406 12.6297 2.25781L22.7318 12.1953C23.0853 12.543 23.0899 13.1116 22.7423 13.4651C22.3945 13.8187 21.8259 13.8233 21.4724 13.4755L20.2313 12.2547V20.6327C20.2313 21.0459 19.8963 21.381 19.483 21.381H4.517C4.10373 21.381 3.7687 21.0459 3.7687 20.6327V12.2547L2.52768 13.4755C2.17413 13.8233 1.6056 13.8187 1.25781 13.4651C0.91003 13.1116 0.9147 12.543 1.26824 12.1953L11.3703 2.25781ZM12 4.15756L18.7347 10.7825V19.8844H15.7415V14.6463C15.7415 14.233 15.4065 13.898 14.9932 13.898H10.5034C10.0901 13.898 9.75511 14.233 9.75511 14.6463V19.8844H5.2653V10.7825L12 4.15756ZM11.2517 19.8844H14.2449V15.3946H11.2517V19.8844Z" fill="#53B6FD"></path>
  </symbol>
  <symbol fill="none" xmlns="http://www.w3.org/2000/svg" viewBox="0 0 23 23" id="icon-left-arrow">
    <path d="M16 2L5.76923 11.5L16 21" stroke="#53B6FD" stroke-width="2" stroke-linecap="round" stroke-linejoin="round"></path>
  </symbol>
  <symbol fill="none" xmlns="http://www.w3.org/2000/svg" viewBox="0 0 23 23" id="icon-message">
    <path fill-rule="evenodd" clip-rule="evenodd" d="M1.46667 2.93335C0.656649 2.93335 0 3.59001 0 4.40002V17.6C0 18.4101 0.656649 19.0667 1.46667 19.0667H20.5333C21.3434 19.0667 22 18.4101 22 17.6V4.40002C22 3.59001 21.3434 2.93335 20.5333 2.93335H1.46667ZM1.46667 4.40002H20.5333V5.7566C20.4122 5.75648 20.2896 5.7897 20.1797 5.85942L11 11.685L1.82031 5.85942C1.71044 5.7897 1.58781 5.75648 1.46667 5.7566V4.40002ZM1.46667 7.19837V17.6H20.5333V7.19837L11.3536 13.0239C11.1378 13.1609 10.8622 13.1609 10.6464 13.0239L1.46667 7.19837Z" fill="#53B6FD"></path>
  </symbol>
  <symbol fill="none" xmlns="http://www.w3.org/2000/svg" viewBox="0 0 23 23" id="icon-more">
    <path fill-rule="evenodd" clip-rule="evenodd" d="M12.6501 4.6666C12.6501 5.57787 11.9114 6.3166 11.0001 6.3166C10.0888 6.3166 9.3501 5.57787 9.3501 4.6666C9.3501 3.75533 10.0888 3.0166 11.0001 3.0166C11.9114 3.0166 12.6501 3.75533 12.6501 4.6666ZM12.6501 11.9999C12.6501 12.9112 11.9114 13.6499 11.0001 13.6499C10.0888 13.6499 9.3501 12.9112 9.3501 11.9999C9.3501 11.0887 10.0888 10.3499 11.0001 10.3499C11.9114 10.3499 12.6501 11.0887 12.6501 11.9999ZM11.0001 20.9833C11.9114 20.9833 12.6501 20.2445 12.6501 19.3333C12.6501 18.422 11.9114 17.6833 11.0001 17.6833C10.0888 17.6833 9.3501 18.422 9.3501 19.3333C9.3501 20.2445 10.0888 20.9833 11.0001 20.9833Z" fill="#53B6FD"></path>
  </symbol>
  <symbol fill="none" xmlns="http://www.w3.org/2000/svg" viewBox="0 0 23 23" id="icon-note">
    <path fill-rule="evenodd" clip-rule="evenodd" d="M4.69231 2.53846C4.69231 2.07115 5.07115 1.69231 5.53846 1.69231H14.9913C15.2157 1.69231 15.431 1.78146 15.5897 1.94015L19.6753 6.02573C19.8339 6.18442 19.9231 6.39965 19.9231 6.62405V19.4615C19.9231 19.9288 19.5442 20.3077 19.0769 20.3077H5.53846C5.07115 20.3077 4.69231 19.9288 4.69231 19.4615V2.53846ZM5.53846 0C4.1365 0 3 1.1365 3 2.53846V19.4615C3 20.8634 4.1365 22 5.53846 22H19.0769C20.4788 22 21.6154 20.8634 21.6154 19.4615V6.62405C21.6154 5.95081 21.348 5.30515 20.872 4.82908L16.7862 0.743498C16.3102 0.267452 15.6646 0 14.9913 0H5.53846ZM7.23077 5.07692C6.76346 5.07692 6.38462 5.45576 6.38462 5.92308C6.38462 6.39039 6.76346 6.76923 7.23077 6.76923H12.3077C12.775 6.76923 13.1538 6.39039 13.1538 5.92308C13.1538 5.45576 12.775 5.07692 12.3077 5.07692H7.23077ZM7.23077 10.1538C6.76346 10.1538 6.38462 10.5327 6.38462 11C6.38462 11.4673 6.76346 11.8462 7.23077 11.8462H17.3846C17.8519 11.8462 18.2308 11.4673 18.2308 11C18.2308 10.5327 17.8519 10.1538 17.3846 10.1538H7.23077ZM7.23077 15.2308C6.76346 15.2308 6.38462 15.6097 6.38462 16.0769C6.38462 16.5442 6.76346 16.9231 7.23077 16.9231H17.3846C17.8519 16.9231 18.2308 16.5442 18.2308 16.0769C18.2308 15.6097 17.8519 15.2308 17.3846 15.2308H7.23077Z" fill="#53B6FD"></path>
  </symbol>
  <symbol fill="none" xmlns="http://www.w3.org/2000/svg" viewBox="0 0 23 23" id="icon-note-blue">
    <path fill-rule="evenodd" clip-rule="evenodd" d="M5.24104 4.00501C4.81621 4.00501 4.47181 4.34941 4.47181 4.77425V20.1589C4.47181 20.5836 4.81621 20.9281 5.24104 20.9281H17.5487C17.9735 20.9281 18.318 20.5836 18.318 20.1589V10.1589H12.9334C12.5085 10.1589 12.1641 9.81446 12.1641 9.38963V4.00501H5.24104ZM13.7026 5.09288L17.2301 8.6204H13.7026V5.09288ZM2.93335 4.77425C2.93335 3.49974 3.96653 2.46655 5.24104 2.46655H12.9334C13.1374 2.46655 13.333 2.5476 13.4773 2.69186L19.6312 8.84571C19.7754 8.98995 19.8564 9.18561 19.8564 9.38963V20.1589C19.8564 21.4333 18.8232 22.4666 17.5487 22.4666H5.24104C3.96653 22.4666 2.93335 21.4333 2.93335 20.1589V4.77425Z" fill="#53B6FD"></path>
  </symbol>
  <symbol fill="none" xmlns="http://www.w3.org/2000/svg" viewBox="0 0 23 23" id="icon-notifications">
    <path fill-rule="evenodd" clip-rule="evenodd" d="M12.9475 2.65824C12.9475 3.41731 12.4374 4.05726 11.7414 4.25409C15.2751 4.48737 18.069 7.4275 18.069 11.0202V16.219C18.069 17.434 18.1186 18.4151 19.1594 18.9356C19.4719 19.0919 19.636 19.4425 19.5557 19.7826C19.4754 20.1227 19.1719 20.3629 18.8225 20.3629H12.2847C12.5976 20.639 12.7949 21.043 12.7949 21.4931C12.7949 22.3254 12.1202 23 11.288 23C10.4557 23 9.78107 22.3254 9.78107 21.4931C9.78107 21.043 9.97838 20.639 10.2912 20.3629H3.75352C3.40409 20.3629 3.10051 20.1227 3.02023 19.7826C2.93995 19.4425 3.10402 19.0919 3.41657 18.9356C4.45738 18.4151 4.50697 17.434 4.50697 16.219V11.0202C4.50697 7.42682 7.30199 4.48626 10.8366 4.25395C10.1408 4.05697 9.63096 3.41715 9.63096 2.65824C9.63096 1.74242 10.3734 1 11.2892 1C12.205 1 12.9475 1.74242 12.9475 2.65824ZM11.288 5.74606C8.37516 5.74606 6.01386 8.10736 6.01386 11.0202V16.219L6.01391 16.2957C6.01463 16.9669 6.0157 17.9646 5.56074 18.856H17.0153C16.5603 17.9646 16.5614 16.9669 16.5621 16.2957V16.219V11.0202C16.5621 8.10736 14.2008 5.74606 11.288 5.74606Z" fill="#53B6FD"></path>
  </symbol>
  <symbol fill="none" xmlns="http://www.w3.org/2000/svg" viewBox="0 0 23 23" id="icon-projects">
    <path fill-rule="evenodd" clip-rule="evenodd" d="M7.33333 3.46667C7.33333 2.65665 7.98999 2 8.8 2H13.2C14.01 2 14.6667 2.65665 14.6667 3.46667V4.93333H20.5333C21.3434 4.93333 22 5.58999 22 6.4V10.8C22 12.1036 21.4325 13.2748 20.5333 14.0796V18.8667C20.5333 20.0817 19.5483 21.0667 18.3333 21.0667H3.66667C2.45164 21.0667 1.46667 20.0817 1.46667 18.8667V14.0793C0.567556 13.2746 0 12.1036 0 10.8V6.4C0 5.58999 0.65665 4.93333 1.46667 4.93333H7.33333V3.46667ZM13.2 3.46667V4.93333H8.8V3.46667H13.2ZM1.46667 6.4H7.33333H8.06667H13.9333H14.6667H20.5333V10.8C20.5333 11.7592 20.0737 12.6108 19.3596 13.1473C18.8694 13.5154 18.2612 13.7333 17.6 13.7333H11.7333V13C11.7333 12.595 11.405 12.2667 11 12.2667C10.595 12.2667 10.2667 12.595 10.2667 13V13.7333H4.4C3.73897 13.7333 3.13075 13.5153 2.64043 13.147C1.92625 12.6105 1.46667 11.7591 1.46667 10.8V6.4ZM10.2667 15.2H4.4C3.88609 15.2 3.39228 15.1116 2.93333 14.9493V18.8667C2.93333 19.2716 3.26166 19.6 3.66667 19.6H18.3333C18.7383 19.6 19.0667 19.2716 19.0667 18.8667V14.9494C18.6077 15.1117 18.1139 15.2 17.6 15.2H11.7333V15.9333C11.7333 16.3383 11.405 16.6667 11 16.6667C10.595 16.6667 10.2667 16.3383 10.2667 15.9333V15.2Z" fill="#53B6FD"></path>
  </symbol>
  <symbol fill="none" xmlns="http://www.w3.org/2000/svg" viewBox="0 0 23 23" id="icon-smile">
    <path fill-rule="evenodd" clip-rule="evenodd" d="M10.9999 2.28613C5.63526 2.28613 1.28638 6.63502 1.28638 11.9996C1.28638 17.3642 5.63526 21.7132 10.9999 21.7132C16.3645 21.7132 20.7133 17.3642 20.7133 11.9996C20.7133 6.63502 16.3645 2.28613 10.9999 2.28613ZM2.67972 11.9996C2.67972 7.40453 6.40477 3.67946 10.9999 3.67946C15.5949 3.67946 19.32 7.40453 19.32 11.9996C19.32 16.5947 15.5949 20.3198 10.9999 20.3198C6.40477 20.3198 2.67972 16.5947 2.67972 11.9996ZM7.38829 14.5138C7.15659 14.1816 6.69947 14.1002 6.36728 14.3319C6.0351 14.5636 5.95366 15.0207 6.18536 15.3529C7.24425 16.871 9.00582 17.8667 11.0001 17.8667C12.9943 17.8667 14.7558 16.871 15.8148 15.3529C16.0465 15.0207 15.965 14.5636 15.6328 14.3319C15.3007 14.1002 14.8435 14.1816 14.6118 14.5138C13.8155 15.6555 12.4946 16.4 11.0001 16.4C9.50547 16.4 8.18465 15.6555 7.38829 14.5138ZM7.88338 11.0467C8.59214 11.0467 9.16671 10.472 9.16671 9.76333C9.16671 9.05466 8.59214 8.48 7.88338 8.48C7.17463 8.48 6.60004 9.05466 6.60004 9.76333C6.60004 10.472 7.17463 11.0467 7.88338 11.0467ZM15.4 9.76333C15.4 10.472 14.8255 11.0467 14.1167 11.0467C13.408 11.0467 12.8334 10.472 12.8334 9.76333C12.8334 9.05466 13.408 8.48 14.1167 8.48C14.8255 8.48 15.4 9.05466 15.4 9.76333Z" fill="#53B6FD"></path>
  </symbol>
  <symbol fill="none" xmlns="http://www.w3.org/2000/svg" viewBox="0 0 23 23" id="icon-task">
    <path fill-rule="evenodd" clip-rule="evenodd" d="M4.53846 1.69231C4.07115 1.69231 3.69231 2.07115 3.69231 2.53846V19.4615C3.69231 19.9288 4.07115 20.3077 4.53846 20.3077H18.0769C18.5442 20.3077 18.9231 19.9288 18.9231 19.4615V6.27357L14.3418 1.69231H4.53846ZM2 2.53846C2 1.1365 3.1365 0 4.53846 0H14.6923C14.9167 0 15.132 0.0891508 15.2906 0.247839L20.2436 5.20083C20.4817 5.43887 20.6154 5.7617 20.6154 6.09832V19.4615C20.6154 20.8634 19.4788 22 18.0769 22H4.53846C3.1365 22 2 20.8634 2 19.4615V2.53846ZM6.65385 11C6.65385 10.5327 7.03269 10.1538 7.5 10.1538H10.4615V7.19231C10.4615 6.72499 10.8404 6.34615 11.3077 6.34615C11.775 6.34615 12.1538 6.72499 12.1538 7.19231V10.1538H15.1154C15.5826 10.1538 15.9615 10.5327 15.9615 11C15.9615 11.4673 15.5826 11.8462 15.1154 11.8462H12.1538V14.8077C12.1538 15.2749 11.775 15.6538 11.3077 15.6538C10.8404 15.6538 10.4615 15.2749 10.4615 14.8077V11.8462H7.5C7.03269 11.8462 6.65385 11.4673 6.65385 11Z" fill="#53B6FD"></path>
  </symbol>
  <symbol fill="none" xmlns="http://www.w3.org/2000/svg" viewBox="0 0 23 23" id="icon-task-edit">
    <path fill-rule="evenodd" clip-rule="evenodd" d="M7.33335 3.19989C7.33335 2.79488 7.00502 2.46655 6.60002 2.46655C6.19501 2.46655 5.86668 2.79488 5.86668 3.19989V11.2666C5.86668 11.2911 5.86789 11.3153 5.87023 11.3392C4.19481 11.6775 2.93335 13.1581 2.93335 14.9332C2.93335 16.7083 4.19481 18.1889 5.87023 18.5273C5.86789 18.5512 5.86668 18.5754 5.86668 18.5999V20.7999C5.86668 21.2048 6.19501 21.5332 6.60002 21.5332C7.00502 21.5332 7.33335 21.2048 7.33335 20.7999V18.5999C7.33335 18.5754 7.33215 18.5512 7.3298 18.5273C9.0052 18.1889 10.2667 16.7083 10.2667 14.9332C10.2667 13.1581 9.0052 11.6775 7.3298 11.3392C7.33215 11.3153 7.33335 11.2911 7.33335 11.2666V3.19989ZM16.1334 3.19989C16.1334 2.79488 15.805 2.46655 15.4 2.46655C14.9951 2.46655 14.6667 2.79488 14.6667 3.19989V5.39989C14.6667 5.42439 14.6679 5.44862 14.6702 5.47252C12.9948 5.81088 11.7334 7.2914 11.7334 9.06655C11.7334 10.8417 12.9948 12.3222 14.6702 12.6606C14.6679 12.6845 14.6667 12.7087 14.6667 12.7332V20.7999C14.6667 21.2048 14.9951 21.5332 15.4 21.5332C15.805 21.5332 16.1334 21.2048 16.1334 20.7999V12.7332C16.1334 12.7087 16.1322 12.6845 16.1298 12.6606C17.8052 12.3222 19.0667 10.8417 19.0667 9.06655C19.0667 7.2914 17.8052 5.81088 16.1298 5.47252C16.1322 5.44862 16.1334 5.42439 16.1334 5.39989V3.19989ZM6.60002 12.7332C5.38499 12.7332 4.40002 13.7182 4.40002 14.9332C4.40002 16.1482 5.38499 17.1332 6.60002 17.1332C7.81505 17.1332 8.80002 16.1482 8.80002 14.9332C8.80002 13.7182 7.81505 12.7332 6.60002 12.7332ZM13.2 9.06655C13.2 7.85152 14.185 6.86655 15.4 6.86655C16.615 6.86655 17.6 7.85152 17.6 9.06655C17.6 10.2816 16.615 11.2666 15.4 11.2666C14.185 11.2666 13.2 10.2816 13.2 9.06655Z" fill="#53B6FD"></path>
  </symbol>
  <symbol fill="none" xmlns="http://www.w3.org/2000/svg" viewBox="0 0 23 23" id="icon-team">
    <path d="M5.04726 7.29412C5.17236 9.15484 6.4605 10.5882 7.8652 10.5882C9.2699 10.5882 10.5602 9.15529 10.6831 7.29412C10.8112 5.35837 9.55725 4 7.8652 4C6.17316 4 4.91918 5.39359 5.04726 7.29412Z" stroke="#53B6FD" stroke-width="1.5" stroke-linecap="round" stroke-linejoin="round"></path>
    <path d="M7.86555 13.0588C10.9727 13.0588 13.9607 14.4869 14.7092 17.2681C14.8084 17.636 14.559 18 14.1504 18H1.58019C1.17159 18 0.923665 17.636 1.0214 17.2681C1.76994 14.4424 4.75791 13.0588 7.86555 13.0588Z" stroke="#53B6FD" stroke-width="1.5" stroke-miterlimit="10"></path>
    <path d="M13.9304 7.29152C14.0371 8.67505 15.1482 9.76466 16.346 9.76466C17.5437 9.76466 18.6567 8.67547 18.7615 7.29152C18.8704 5.85219 17.7889 4.82349 16.346 4.82349C14.903 4.82349 13.8215 5.8786 13.9304 7.29152Z" stroke="#53B6FD" stroke-width="1.5" stroke-linecap="round" stroke-linejoin="round"></path>
    <path d="M13.923 12.7624C14.7609 12.3817 15.6836 12.2354 16.6616 12.2354C19.0753 12.2354 21.4008 13.4253 21.9833 15.7431C22.0599 16.0496 21.8659 16.353 21.5484 16.353H16.3367" stroke="#53B6FD" stroke-width="1.5" stroke-miterlimit="10" stroke-linecap="round"></path>
  </symbol>
  <symbol fill="none" xmlns="http://www.w3.org/2000/svg" viewBox="0 0 183 57" id="logo-blue-transparent">
    <path d="M80.374 18.304H69.846V12.1H98.516V18.304H87.988V45H80.374V18.304ZM111.01 19.338C114.926 19.338 117.934 20.278 120.034 22.158C122.133 24.0067 123.183 26.811 123.183 30.571V45H116.321V41.851C114.942 44.201 112.373 45.376 108.613 45.376C106.67 45.376 104.978 45.047 103.537 44.389C102.127 43.731 101.046 42.8223 100.294 41.663C99.5415 40.5037 99.1655 39.1877 99.1655 37.715C99.1655 35.365 100.043 33.5163 101.798 32.169C103.584 30.8217 106.325 30.148 110.023 30.148H115.851C115.851 28.55 115.365 27.328 114.394 26.482C113.422 25.6047 111.965 25.166 110.023 25.166C108.675 25.166 107.344 25.3853 106.028 25.824C104.743 26.2313 103.646 26.7953 102.738 27.516L100.106 22.393C101.484 21.4217 103.129 20.6697 105.041 20.137C106.983 19.6043 108.973 19.338 111.01 19.338ZM110.446 40.441C111.699 40.441 112.811 40.159 113.783 39.595C114.754 38.9997 115.443 38.138 115.851 37.01V34.425H110.822C107.814 34.425 106.31 35.412 106.31 37.386C106.31 38.326 106.67 39.078 107.391 39.642C108.143 40.1747 109.161 40.441 110.446 40.441ZM138.325 45.376C136.226 45.376 134.174 45.1253 132.168 44.624C130.163 44.0913 128.565 43.4333 127.374 42.65L129.818 37.386C130.946 38.1067 132.309 38.702 133.907 39.172C135.505 39.6107 137.072 39.83 138.607 39.83C141.709 39.83 143.26 39.0623 143.26 37.527C143.26 36.8063 142.837 36.2893 141.991 35.976C141.145 35.6627 139.845 35.3963 138.09 35.177C136.022 34.8637 134.315 34.5033 132.967 34.096C131.62 33.6887 130.445 32.968 129.442 31.934C128.471 30.9 127.985 29.4273 127.985 27.516C127.985 25.918 128.44 24.508 129.348 23.286C130.288 22.0327 131.636 21.0613 133.39 20.372C135.176 19.6827 137.276 19.338 139.688 19.338C141.474 19.338 143.245 19.5417 144.999 19.949C146.785 20.325 148.258 20.8577 149.417 21.547L146.973 26.764C144.749 25.5107 142.32 24.884 139.688 24.884C138.122 24.884 136.947 25.1033 136.163 25.542C135.38 25.9807 134.988 26.5447 134.988 27.234C134.988 28.0173 135.411 28.5657 136.257 28.879C137.103 29.1923 138.451 29.49 140.299 29.772C142.367 30.1167 144.059 30.4927 145.375 30.9C146.691 31.276 147.835 31.981 148.806 33.015C149.778 34.049 150.263 35.4903 150.263 37.339C150.263 38.9057 149.793 40.3 148.853 41.522C147.913 42.744 146.535 43.6997 144.717 44.389C142.931 45.047 140.801 45.376 138.325 45.376ZM165.644 35.083L162.119 38.561V45H154.787V10.126H162.119V29.866L172.835 19.714H181.577L171.049 30.43L182.517 45H173.634L165.644 35.083Z" fill="#53B6FD"></path>
    <path d="M32.351 34.4548L38.0104 25.0503V34.0021C38.0104 38.4178 39.1591 42.4482 42.119 45.3604C44.9674 48.1629 48.6933 49.3761 52.8204 49.3761C54.7765 49.3761 56.6679 49.0392 58.4572 48.3332C59.0908 48.7546 59.8514 49.0001 60.6694 49.0001H67.6254C69.8345 49.0001 71.6254 47.2092 71.6254 45.0001V19.7141C71.6254 17.505 69.8345 15.7141 67.6254 15.7141H60.2934C58.0842 15.7141 56.2934 17.505 56.2934 19.7141V32.2161C56.2934 33.8452 55.919 34.4378 55.765 34.6158C55.558 34.8273 55.2493 35.0311 54.4654 35.0311C54.0007 35.0311 53.7743 34.961 53.7018 34.9322C53.693 34.9287 53.6861 34.9257 53.6809 34.9232C53.6306 34.8492 53.3424 34.3611 53.3424 32.9211V19.7141C53.3424 17.505 51.5515 15.7141 49.3424 15.7141H43.6286L44.5623 14.1625C45.3058 12.927 45.3267 11.3869 44.6171 10.1316C43.9074 8.87626 42.577 8.1001 41.135 8.1001H33.662C32.2583 8.1001 30.9573 8.83589 30.234 10.0389L24.873 18.9547L19.512 10.0389C18.7887 8.83589 17.4877 8.1001 16.084 8.1001H8C6.55774 8.1001 5.22717 8.87651 4.51759 10.1321C3.80802 11.3878 3.82934 12.9282 4.57339 14.1637L16.737 34.3616V45.0001C16.737 47.2092 18.5279 49.0001 20.737 49.0001H28.351C30.5601 49.0001 32.351 47.2092 32.351 45.0001V34.4548Z" fill="white" stroke="#53B6FD" stroke-width="8" stroke-linejoin="round"></path>
  </symbol>
  <symbol fill="none" xmlns="http://www.w3.org/2000/svg" viewBox="0 0 27 27" id="user-blue">
    <circle cx="13.5" cy="13.5" r="13.5" fill="#53B6FD"></circle>
    <path d="M13.6875 13.5C15.4824 13.5 16.9375 12.0449 16.9375 10.25C16.9375 8.45507 15.4824 7 13.6875 7C11.8926 7 10.4375 8.45507 10.4375 10.25C10.4375 12.0449 11.8926 13.5 13.6875 13.5Z" stroke="white" stroke-width="0.95"></path>
    <path d="M8 20C8 16.0625 10.1612 14.3125 13.6875 14.3125C17.2137 14.3125 19.3751 16.0625 19.375 20" stroke="white" stroke-width="0.95" stroke-linecap="round"></path>
  </symbol>
  <symbol fill="none" xmlns="http://www.w3.org/2000/svg" viewBox="0 0 23 23" id="arrow-down">
    <path d="M2 6L11.5 16.2308L21 6" stroke="#53B6FD" stroke-width="2" stroke-linecap="round" stroke-linejoin="round"></path>
  </symbol>
  <symbol fill="none" xmlns="http://www.w3.org/2000/svg" viewBox="0 0 65 65" id="chat-orange">
    <g filter="url(#filter0_d_71_5622)">
      <circle cx="32.5" cy="32.5" r="25.5" fill="#F2994A"></circle>
    </g>
    <path d="M32.8542 32.4999C36.2446 32.4999 38.993 29.7515 38.993 26.3611C38.993 22.9706 36.2446 20.2222 32.8542 20.2222C29.4637 20.2222 26.7153 22.9706 26.7153 26.3611C26.7153 29.7515 29.4637 32.4999 32.8542 32.4999Z" stroke="white"></path>
    <path d="M22.1111 44.7777C22.1111 37.3403 26.1933 34.0347 32.8541 34.0347C39.5148 34.0347 43.5974 37.3403 43.5972 44.7777" stroke="white" stroke-linecap="round"></path>
    <defs>
      <filter id="filter0_d_71_5622" x="0" y="0" width="65" height="65" filterUnits="userSpaceOnUse" color-interpolation-filters="sRGB">
        <feFlood flood-opacity="0" result="BackgroundImageFix"></feFlood>
        <feColorMatrix in="SourceAlpha" type="matrix" values="0 0 0 0 0 0 0 0 0 0 0 0 0 0 0 0 0 0 127 0" result="hardAlpha"></feColorMatrix>
        <feOffset></feOffset>
        <feGaussianBlur stdDeviation="3.5"></feGaussianBlur>
        <feComposite in2="hardAlpha" operator="out"></feComposite>
        <feColorMatrix type="matrix" values="0 0 0 0 0 0 0 0 0 0 0 0 0 0 0 0 0 0 0.11 0"></feColorMatrix>
        <feBlend mode="normal" in2="BackgroundImageFix" result="effect1_dropShadow_71_5622"></feBlend>
        <feBlend mode="normal" in="SourceGraphic" in2="effect1_dropShadow_71_5622" result="shape"></feBlend>
      </filter>
    </defs>
  </symbol>
  <symbol fill="none" xmlns="http://www.w3.org/2000/svg" viewBox="0 0 65 65" id="chat-yellow">
    <g filter="url(#filter0_d_71_5632)">
      <circle cx="32.5" cy="32.5" r="25.5" fill="#F2C94C"></circle>
    </g>
    <path d="M32.8542 32.4999C36.2446 32.4999 38.993 29.7515 38.993 26.3611C38.993 22.9706 36.2446 20.2222 32.8542 20.2222C29.4637 20.2222 26.7153 22.9706 26.7153 26.3611C26.7153 29.7515 29.4637 32.4999 32.8542 32.4999Z" stroke="white"></path>
    <path d="M22.1111 44.7777C22.1111 37.3403 26.1933 34.0347 32.8541 34.0347C39.5148 34.0347 43.5974 37.3403 43.5972 44.7777" stroke="white" stroke-linecap="round"></path>
    <defs>
      <filter id="filter0_d_71_5632" x="0" y="0" width="65" height="65" filterUnits="userSpaceOnUse" color-interpolation-filters="sRGB">
        <feFlood flood-opacity="0" result="BackgroundImageFix"></feFlood>
        <feColorMatrix in="SourceAlpha" type="matrix" values="0 0 0 0 0 0 0 0 0 0 0 0 0 0 0 0 0 0 127 0" result="hardAlpha"></feColorMatrix>
        <feOffset></feOffset>
        <feGaussianBlur stdDeviation="3.5"></feGaussianBlur>
        <feComposite in2="hardAlpha" operator="out"></feComposite>
        <feColorMatrix type="matrix" values="0 0 0 0 0 0 0 0 0 0 0 0 0 0 0 0 0 0 0.11 0"></feColorMatrix>
        <feBlend mode="normal" in2="BackgroundImageFix" result="effect1_dropShadow_71_5632"></feBlend>
        <feBlend mode="normal" in="SourceGraphic" in2="effect1_dropShadow_71_5632" result="shape"></feBlend>
      </filter>
    </defs>
  </symbol>
  <symbol fill="none" xmlns="http://www.w3.org/2000/svg" viewBox="0 0 23 23" id="icon-add">
    <path fill-rule="evenodd" clip-rule="evenodd" d="M11.9999 2.28613C6.63526 2.28613 2.28638 6.63502 2.28638 11.9996C2.28638 17.3642 6.63526 21.7132 11.9999 21.7132C17.3645 21.7132 21.7133 17.3642 21.7133 11.9996C21.7133 6.63502 17.3645 2.28613 11.9999 2.28613ZM3.6797 11.9996C3.6797 7.40453 7.40477 3.67946 11.9999 3.67946C16.5949 3.67946 20.32 7.40453 20.32 11.9996C20.32 16.5947 16.5949 20.3198 11.9999 20.3198C7.40477 20.3198 3.6797 16.5947 3.6797 11.9996ZM12 6.86669C12.405 6.86669 12.7334 7.19502 12.7334 7.60002V11.2667H16.4C16.8051 11.2667 17.1333 11.595 17.1333 12C17.1333 12.405 16.8051 12.7334 16.4 12.7334H12.7334V16.4C12.7334 16.805 12.405 17.1334 12 17.1334C11.595 17.1334 11.2667 16.805 11.2667 16.4V12.7334H7.60004C7.19504 12.7334 6.86671 12.405 6.86671 12C6.86671 11.595 7.19504 11.2667 7.60004 11.2667H11.2667V7.60002C11.2667 7.19502 11.595 6.86669 12 6.86669Z" fill="#53B6FD"></path>
  </symbol>
  <symbol fill="none" xmlns="http://www.w3.org/2000/svg" viewBox="0 0 65 65" id="icon-add-blue">
    <g filter="url(#filter0_d_72_1889)">
      <circle cx="32.5" cy="32.5" r="25.5" fill="#DBF0FF"></circle>
    </g>
    <path fill-rule="evenodd" clip-rule="evenodd" d="M32.9999 23.2861C27.6353 23.2861 23.2864 27.635 23.2864 32.9996C23.2864 38.3642 27.6353 42.7132 32.9999 42.7132C38.3645 42.7132 42.7133 38.3642 42.7133 32.9996C42.7133 27.635 38.3645 23.2861 32.9999 23.2861ZM24.6797 32.9996C24.6797 28.4045 28.4048 24.6795 32.9999 24.6795C37.5949 24.6795 41.32 28.4045 41.32 32.9996C41.32 37.5947 37.5949 41.3198 32.9999 41.3198C28.4048 41.3198 24.6797 37.5947 24.6797 32.9996ZM33 27.8667C33.405 27.8667 33.7334 28.195 33.7334 28.6V32.2667H37.4C37.8051 32.2667 38.1333 32.595 38.1333 33C38.1333 33.405 37.8051 33.7334 37.4 33.7334H33.7334V37.4C33.7334 37.805 33.405 38.1334 33 38.1334C32.595 38.1334 32.2667 37.805 32.2667 37.4V33.7334H28.6C28.195 33.7334 27.8667 33.405 27.8667 33C27.8667 32.595 28.195 32.2667 28.6 32.2667H32.2667V28.6C32.2667 28.195 32.595 27.8667 33 27.8667Z" fill="#53B6FD"></path>
    <defs>
      <filter id="filter0_d_72_1889" x="0" y="0" width="65" height="65" filterUnits="userSpaceOnUse" color-interpolation-filters="sRGB">
        <feFlood flood-opacity="0" result="BackgroundImageFix"></feFlood>
        <feColorMatrix in="SourceAlpha" type="matrix" values="0 0 0 0 0 0 0 0 0 0 0 0 0 0 0 0 0 0 127 0" result="hardAlpha"></feColorMatrix>
        <feOffset></feOffset>
        <feGaussianBlur stdDeviation="3.5"></feGaussianBlur>
        <feComposite in2="hardAlpha" operator="out"></feComposite>
        <feColorMatrix type="matrix" values="0 0 0 0 0 0 0 0 0 0 0 0 0 0 0 0 0 0 0.11 0"></feColorMatrix>
        <feBlend mode="normal" in2="BackgroundImageFix" result="effect1_dropShadow_72_1889"></feBlend>
        <feBlend mode="normal" in="SourceGraphic" in2="effect1_dropShadow_72_1889" result="shape"></feBlend>
      </filter>
    </defs>
  </symbol>
</svg>