<svg width="149" height="45" viewBox="0 0 149 45" fill="none" xmlns="http://www.w3.org/2000/svg">
<path d="M64.832 15.1867H56.2238V10.1141H79.6657V15.1867H71.0575V37.0146H64.832V15.1867ZM89.881 16.0322C93.0835 16.0322 95.543 16.8008 97.2595 18.338C98.976 19.8495 99.8343 22.1425 99.8343 25.2168V37.0146H94.2236V34.4399C93.0963 36.3613 90.9955 37.3221 87.9211 37.3221C86.3327 37.3221 84.9493 37.0531 83.7708 36.5151C82.6179 35.9771 81.734 35.2341 81.1191 34.2862C80.5043 33.3382 80.1968 32.2622 80.1968 31.0581C80.1968 29.1366 80.9142 27.6251 82.3489 26.5234C83.8092 25.4218 86.0509 24.871 89.074 24.871H93.8393C93.8393 23.5644 93.4422 22.5652 92.648 21.8735C91.8538 21.1561 90.6624 20.7974 89.074 20.7974C87.9724 20.7974 86.8836 20.9768 85.8075 21.3354C84.7571 21.6685 83.8604 22.1297 83.1175 22.7189L80.9654 18.5301C82.0927 17.7359 83.4377 17.121 85.0005 16.6855C86.5889 16.25 88.2158 16.0322 89.881 16.0322ZM89.4199 33.287C90.4447 33.287 91.3542 33.0564 92.1484 32.5953C92.9426 32.1085 93.5062 31.404 93.8393 30.4816V28.368H89.7273C87.2678 28.368 86.0381 29.175 86.0381 30.7891C86.0381 31.5577 86.3327 32.1725 86.922 32.6337C87.5369 33.0692 88.3695 33.287 89.4199 33.287ZM112.216 37.3221C110.499 37.3221 108.821 37.1171 107.181 36.7072C105.542 36.2717 104.235 35.7337 103.262 35.0932L105.26 30.7891C106.182 31.3783 107.297 31.8651 108.603 32.2494C109.91 32.6081 111.191 32.7874 112.446 32.7874C114.983 32.7874 116.251 32.1597 116.251 30.9044C116.251 30.3151 115.905 29.8924 115.213 29.6362C114.522 29.38 113.458 29.1622 112.024 28.9829C110.333 28.7267 108.936 28.4321 107.835 28.099C106.733 27.766 105.772 27.1767 104.953 26.3313C104.158 25.4858 103.761 24.2817 103.761 22.7189C103.761 21.4123 104.133 20.2594 104.876 19.2603C105.644 18.2355 106.746 17.4413 108.181 16.8776C109.641 16.314 111.357 16.0322 113.33 16.0322C114.791 16.0322 116.238 16.1987 117.673 16.5318C119.133 16.8392 120.337 17.2747 121.285 17.8384L119.287 22.104C117.468 21.0793 115.482 20.5669 113.33 20.5669C112.049 20.5669 111.088 20.7462 110.448 21.1049C109.807 21.4635 109.487 21.9247 109.487 22.4883C109.487 23.1288 109.833 23.5772 110.525 23.8334C111.217 24.0896 112.318 24.3329 113.83 24.5635C115.521 24.8453 116.904 25.1528 117.98 25.4858C119.056 25.7933 119.991 26.3697 120.786 27.2151C121.58 28.0606 121.977 29.2391 121.977 30.7507C121.977 32.0316 121.593 33.1717 120.824 34.1709C120.055 35.17 118.928 35.9514 117.442 36.5151C115.982 37.0531 114.24 37.3221 112.216 37.3221ZM134.553 28.906L131.671 31.7498V37.0146H125.676V8.50002H131.671V24.6404L140.433 16.3396H147.58L138.972 25.1015L148.349 37.0146H141.086L134.553 28.906Z" fill="#53B6FD"/>
<path d="M26.4668 27.2366L30.7963 20.1042V26.8408C30.7963 30.3509 31.7185 33.5687 34.1023 35.8938C36.3902 38.1253 39.3758 39.085 42.6699 39.085C44.2222 39.085 45.7248 38.8218 47.1483 38.2696C47.6581 38.5979 48.265 38.7883 48.9165 38.7883H54.4523C56.2586 38.7883 57.7229 37.324 57.7229 35.5177V15.5682C57.7229 13.7619 56.2586 12.2976 54.4523 12.2976H48.6172C46.8109 12.2976 45.3466 13.7619 45.3466 15.5682V25.4317C45.3466 26.6848 45.0591 27.1205 44.9586 27.237C44.8139 27.383 44.5871 27.5379 43.9791 27.5379C43.6372 27.5379 43.4646 27.4899 43.4049 27.4683C43.3512 27.3727 43.1726 26.9828 43.1726 25.9879V15.5682C43.1726 13.7619 41.7083 12.2976 39.902 12.2976H35.5351L36.166 11.2581C36.779 10.2483 36.7998 8.98642 36.2204 7.95695C35.641 6.92748 34.5515 6.29045 33.3702 6.29045H27.4229C26.2796 6.29045 25.2193 6.88742 24.6265 7.86492L20.4282 14.7866L16.23 7.86492C15.6371 6.88741 14.5768 6.29045 13.4336 6.29045H7C5.81849 6.29045 4.72884 6.92769 4.14953 7.95742C3.57022 8.98716 3.59133 10.2493 4.20476 11.2591L13.866 27.163V35.5177C13.866 37.324 15.3303 38.7883 17.1366 38.7883H23.1962C25.0025 38.7883 26.4668 37.324 26.4668 35.5177V27.2366Z" fill="white" stroke="#53B6FD" stroke-width="6.54118" stroke-linejoin="round"/>
</svg>
